<svg xmlns="http://www.w3.org/2000/svg" width="100" height="100" viewBox="0 0 100 100"><defs><style>.a,.b,.c,.d{fill:none;}.a{stroke:#81949c;}.a,.b,.c{stroke-linecap:round;stroke-linejoin:round;}.b{stroke:#80939a;}.c{stroke:#ff5a00;}</style></defs><polyline class="a" points="82.99 15.865 67.553 15.865 67.553 0.542 67.553 0.542"/><polyline class="a" points="82.99 81.298 82.99 15.865 67.526 0.542 17.01 0.542 17.01 94.528 61.132 94.528"/><polyline class="a" points="73.263 94.528 82.99 94.528 82.99 77.522"/><path class="b" d="M55.851,9.865A7.943,7.943,0,0,0,44.7,9.309a7.771,7.771,0,0,0-.561,11.046,7.944,7.944,0,0,0,11.147.556,7.844,7.844,0,0,0,1.041-1.137"/><polyline class="c" points="47.054 12.17 50.315 15.09 52.34 12.995"/><path class="a" d="M25.537,44.523H74.369"/><path class="a" d="M25.537,49.529H74.369"/><path class="a" d="M25.537,54.516H74.369"/><path class="a" d="M25.537,35.524H45.391"/><path class="a" d="M25.537,64.559H49.986"/><path class="a" d="M25.537,59.557H74.369"/><path class="c" d="M71.481,80.714h0a1.3,1.3,0,0,1,1.449,1.132,1.272,1.272,0,0,1-.005.354h0a3.329,3.329,0,0,0,1.247,3.131h0a1.3,1.3,0,0,1-.029,2.073h0a3.334,3.334,0,0,0-1.333,3.09h0a1.3,1.3,0,0,1-1.13,1.45,1.286,1.286,0,0,1-.356-.005h0A3.332,3.332,0,0,0,68.2,93.182h0a1.3,1.3,0,0,1-1.825.226,1.281,1.281,0,0,1-.248-.256h0a3.336,3.336,0,0,0-3.09-1.332h0a1.3,1.3,0,0,1-1.445-1.487h0a3.33,3.33,0,0,0-1.243-3.126h0a1.3,1.3,0,0,1-.226-1.824,1.342,1.342,0,0,1,.256-.249h0a3.33,3.33,0,0,0,1.332-3.09h0a1.3,1.3,0,0,1,1.13-1.45,1.333,1.333,0,0,1,.357.005h0a3.33,3.33,0,0,0,3.127-1.243h0a1.3,1.3,0,0,1,1.825-.224,1.321,1.321,0,0,1,.247.254h0A3.332,3.332,0,0,0,71.481,80.714Z"/><circle class="c" cx="67.255" cy="86.341" r="3.83"/><polyline class="c" points="62.787 91.846 59.389 97.352 63.41 99.458 67.048 93.666"/><polyline class="c" points="71.68 91.944 74.995 97.352 70.974 99.458 67.335 93.666"/><rect class="d" x="-727.864" y="-414.744" width="1260" height="1962"/></svg>