<svg xmlns="http://www.w3.org/2000/svg" width="100" height="100" viewBox="0 0 100 100"><defs><style>.a,.b,.c{fill:none;}.a{stroke:#ff5a00;stroke-linecap:round;stroke-linejoin:round;}.b{stroke:#81949c;stroke-miterlimit:10;}</style></defs><line class="a" x1="62.23" y1="60.496" x2="59.795" y2="66.061"/><path class="a" d="M52.52,65.618A8.686,8.686,0,1,1,66.4,70.607"/><circle class="a" cx="68.767" cy="13.976" r="8.18"/><line class="a" x1="72.212" y1="12.024" x2="65.061" y2="15.856"/><path class="b" d="M66.47,72.179c6.418-3.423,19.072-10.5,25.489-13.918a5.11,5.11,0,0,1,6.761,7.217,2.685,2.685,0,0,1-.844.809L58.587,91.638A17.877,17.877,0,0,1,49.6,94.205a17.544,17.544,0,0,1-6.418-1.284,156.853,156.853,0,0,1-17.907-8.263l-.027-.014a5.662,5.662,0,0,0-4.24-.3c-2.346.7-6.951,2.051-7.876,2.239a3.97,3.97,0,0,1-2.048-.056A5.264,5.264,0,0,1,7.8,83.4L.827,65.963c-.773-2.5-.284-3.813,2.63-5.4,2.394-1.6,8.073-5.4,15.34-6.154a36.809,36.809,0,0,1,6.418,0,34.268,34.268,0,0,1,6.417,1.284,16.144,16.144,0,0,1,6.513,3.111A47.72,47.72,0,0,0,41.9,62.112a17.285,17.285,0,0,0,5.134,2.568,29.744,29.744,0,0,0,6.418,1.283c1.921.259,4.756.651,8.318,1.184a4.968,4.968,0,0,1,1.642.532,5.5,5.5,0,0,1,1.624,8.68A3.657,3.657,0,0,1,62.475,77.6a86.436,86.436,0,0,1-11.589-.084,86.274,86.274,0,0,1-15.4-2.568"/><circle class="a" cx="45.914" cy="41.771" r="8.18"/><line class="a" x1="47.069" y1="37.983" x2="44.522" y2="45.687"/><circle class="a" cx="76.378" cy="40.2" r="8.18"/><line class="a" x1="80.165" y1="41.355" x2="72.463" y2="38.808"/><rect class="c" x="-847.864" y="-414.744" width="1260" height="1962"/></svg>